<mxfile host="app.diagrams.net" agent="Mozilla/5.0 (Windows NT 10.0; Win64; x64) AppleWebKit/537.36 (KHTML, like Gecko) Chrome/141.0.0.0 Safari/537.36" version="28.2.7">
  <diagram name="Page-1" id="w2IKEePQW3Ngnl3lo0G7">
    <mxGraphModel dx="1426" dy="777" grid="1" gridSize="10" guides="1" tooltips="1" connect="1" arrows="1" fold="1" page="1" pageScale="1" pageWidth="827" pageHeight="1169" math="0" shadow="0">
      <root>
        <mxCell id="0" />
        <mxCell id="1" parent="0" />
        <mxCell id="yrOSUpVqLaDDBDFLpaAM-51" value="" style="rounded=0;whiteSpace=wrap;html=1;fillColor=#f8cecc;strokeColor=#b85450;opacity=20;" vertex="1" parent="1">
          <mxGeometry x="180" y="680" width="390" height="150" as="geometry" />
        </mxCell>
        <mxCell id="yrOSUpVqLaDDBDFLpaAM-48" value="" style="rounded=0;whiteSpace=wrap;html=1;fillColor=#d5e8d4;strokeColor=#82b366;glass=0;opacity=20;" vertex="1" parent="1">
          <mxGeometry x="400" y="40" width="420" height="850" as="geometry" />
        </mxCell>
        <mxCell id="yrOSUpVqLaDDBDFLpaAM-47" value="" style="rounded=0;whiteSpace=wrap;html=1;fillColor=#ffe6cc;strokeColor=#d79b00;glass=0;opacity=20;" vertex="1" parent="1">
          <mxGeometry x="10" y="40" width="390" height="850" as="geometry" />
        </mxCell>
        <mxCell id="yrOSUpVqLaDDBDFLpaAM-7" style="edgeStyle=orthogonalEdgeStyle;rounded=0;orthogonalLoop=1;jettySize=auto;html=1;entryX=0.5;entryY=0;entryDx=0;entryDy=0;" edge="1" parent="1" source="yrOSUpVqLaDDBDFLpaAM-1" target="yrOSUpVqLaDDBDFLpaAM-2">
          <mxGeometry relative="1" as="geometry" />
        </mxCell>
        <mxCell id="yrOSUpVqLaDDBDFLpaAM-8" style="edgeStyle=orthogonalEdgeStyle;rounded=0;orthogonalLoop=1;jettySize=auto;html=1;entryX=0.5;entryY=0;entryDx=0;entryDy=0;" edge="1" parent="1" source="yrOSUpVqLaDDBDFLpaAM-1" target="yrOSUpVqLaDDBDFLpaAM-4">
          <mxGeometry relative="1" as="geometry" />
        </mxCell>
        <mxCell id="yrOSUpVqLaDDBDFLpaAM-1" value="Physical Access" style="rounded=0;whiteSpace=wrap;html=1;" vertex="1" parent="1">
          <mxGeometry x="30" y="70" width="120" height="60" as="geometry" />
        </mxCell>
        <mxCell id="yrOSUpVqLaDDBDFLpaAM-9" style="edgeStyle=orthogonalEdgeStyle;rounded=0;orthogonalLoop=1;jettySize=auto;html=1;entryX=0.5;entryY=0;entryDx=0;entryDy=0;" edge="1" parent="1" source="yrOSUpVqLaDDBDFLpaAM-2" target="yrOSUpVqLaDDBDFLpaAM-3">
          <mxGeometry relative="1" as="geometry" />
        </mxCell>
        <mxCell id="yrOSUpVqLaDDBDFLpaAM-2" value="Arduino USB Serial port&amp;nbsp;" style="rounded=0;whiteSpace=wrap;html=1;" vertex="1" parent="1">
          <mxGeometry x="30" y="210" width="120" height="60" as="geometry" />
        </mxCell>
        <mxCell id="yrOSUpVqLaDDBDFLpaAM-10" style="edgeStyle=orthogonalEdgeStyle;rounded=0;orthogonalLoop=1;jettySize=auto;html=1;entryX=0;entryY=0.5;entryDx=0;entryDy=0;" edge="1" parent="1" source="yrOSUpVqLaDDBDFLpaAM-3" target="yrOSUpVqLaDDBDFLpaAM-4">
          <mxGeometry relative="1" as="geometry" />
        </mxCell>
        <mxCell id="yrOSUpVqLaDDBDFLpaAM-3" value="Wrong connection port message&amp;nbsp;" style="rounded=0;whiteSpace=wrap;html=1;" vertex="1" parent="1">
          <mxGeometry x="30" y="340" width="120" height="60" as="geometry" />
        </mxCell>
        <mxCell id="yrOSUpVqLaDDBDFLpaAM-11" style="edgeStyle=orthogonalEdgeStyle;rounded=0;orthogonalLoop=1;jettySize=auto;html=1;entryX=0.5;entryY=0;entryDx=0;entryDy=0;" edge="1" parent="1" source="yrOSUpVqLaDDBDFLpaAM-4" target="yrOSUpVqLaDDBDFLpaAM-5">
          <mxGeometry relative="1" as="geometry" />
        </mxCell>
        <mxCell id="yrOSUpVqLaDDBDFLpaAM-4" value="UART connection pins&amp;nbsp;&lt;span style=&quot;color: rgba(0, 0, 0, 0); font-family: monospace; font-size: 0px; text-align: start; text-wrap-mode: nowrap;&quot;&gt;%3CmxGraphModel%3E%3Croot%3E%3CmxCell%20id%3D%220%22%2F%3E%3CmxCell%20id%3D%221%22%20parent%3D%220%22%2F%3E%3CmxCell%20id%3D%222%22%20value%3D%22Wrong%20connection%20port%20message%26amp%3Bnbsp%3B%22%20style%3D%22rounded%3D0%3BwhiteSpace%3Dwrap%3Bhtml%3D1%3B%22%20vertex%3D%221%22%20parent%3D%221%22%3E%3CmxGeometry%20x%3D%2230%22%20y%3D%22340%22%20width%3D%22120%22%20height%3D%2260%22%20as%3D%22geometry%22%2F%3E%3C%2FmxCell%3E%3C%2Froot%3E%3C%2FmxGraphModel%3E&lt;/span&gt;" style="rounded=0;whiteSpace=wrap;html=1;" vertex="1" parent="1">
          <mxGeometry x="200" y="210" width="120" height="60" as="geometry" />
        </mxCell>
        <mxCell id="yrOSUpVqLaDDBDFLpaAM-40" style="edgeStyle=orthogonalEdgeStyle;rounded=0;orthogonalLoop=1;jettySize=auto;html=1;entryX=0.5;entryY=0;entryDx=0;entryDy=0;exitX=0.5;exitY=1;exitDx=0;exitDy=0;" edge="1" parent="1" source="yrOSUpVqLaDDBDFLpaAM-5" target="yrOSUpVqLaDDBDFLpaAM-39">
          <mxGeometry relative="1" as="geometry" />
        </mxCell>
        <mxCell id="yrOSUpVqLaDDBDFLpaAM-42" style="edgeStyle=orthogonalEdgeStyle;rounded=0;orthogonalLoop=1;jettySize=auto;html=1;exitX=0.25;exitY=1;exitDx=0;exitDy=0;entryX=0.5;entryY=0;entryDx=0;entryDy=0;" edge="1" parent="1" source="yrOSUpVqLaDDBDFLpaAM-5" target="yrOSUpVqLaDDBDFLpaAM-38">
          <mxGeometry relative="1" as="geometry" />
        </mxCell>
        <mxCell id="yrOSUpVqLaDDBDFLpaAM-5" value="Entry point protected by password&amp;nbsp;" style="rounded=0;whiteSpace=wrap;html=1;" vertex="1" parent="1">
          <mxGeometry x="200" y="340" width="120" height="60" as="geometry" />
        </mxCell>
        <mxCell id="yrOSUpVqLaDDBDFLpaAM-45" style="edgeStyle=orthogonalEdgeStyle;rounded=0;orthogonalLoop=1;jettySize=auto;html=1;entryX=0;entryY=0.5;entryDx=0;entryDy=0;" edge="1" parent="1" source="yrOSUpVqLaDDBDFLpaAM-6" target="yrOSUpVqLaDDBDFLpaAM-13">
          <mxGeometry relative="1" as="geometry" />
        </mxCell>
        <mxCell id="yrOSUpVqLaDDBDFLpaAM-6" value="Hardware Setup with ChipWhisperer Nano" style="rounded=0;whiteSpace=wrap;html=1;" vertex="1" parent="1">
          <mxGeometry x="200" y="580" width="120" height="60" as="geometry" />
        </mxCell>
        <mxCell id="yrOSUpVqLaDDBDFLpaAM-21" style="edgeStyle=orthogonalEdgeStyle;rounded=0;orthogonalLoop=1;jettySize=auto;html=1;entryX=0.5;entryY=0;entryDx=0;entryDy=0;" edge="1" parent="1" source="yrOSUpVqLaDDBDFLpaAM-13" target="yrOSUpVqLaDDBDFLpaAM-14">
          <mxGeometry relative="1" as="geometry" />
        </mxCell>
        <mxCell id="yrOSUpVqLaDDBDFLpaAM-13" value="Send characters tries as input&amp;nbsp;" style="rounded=0;whiteSpace=wrap;html=1;" vertex="1" parent="1">
          <mxGeometry x="440" y="70" width="120" height="60" as="geometry" />
        </mxCell>
        <mxCell id="yrOSUpVqLaDDBDFLpaAM-22" style="edgeStyle=orthogonalEdgeStyle;rounded=0;orthogonalLoop=1;jettySize=auto;html=1;entryX=0.5;entryY=0;entryDx=0;entryDy=0;" edge="1" parent="1" source="yrOSUpVqLaDDBDFLpaAM-14" target="yrOSUpVqLaDDBDFLpaAM-15">
          <mxGeometry relative="1" as="geometry" />
        </mxCell>
        <mxCell id="yrOSUpVqLaDDBDFLpaAM-14" value="Plot the power traces with each characters&amp;nbsp;" style="rounded=0;whiteSpace=wrap;html=1;" vertex="1" parent="1">
          <mxGeometry x="440" y="180" width="120" height="60" as="geometry" />
        </mxCell>
        <mxCell id="yrOSUpVqLaDDBDFLpaAM-23" style="edgeStyle=orthogonalEdgeStyle;rounded=0;orthogonalLoop=1;jettySize=auto;html=1;entryX=0.5;entryY=0;entryDx=0;entryDy=0;" edge="1" parent="1" source="yrOSUpVqLaDDBDFLpaAM-15" target="yrOSUpVqLaDDBDFLpaAM-18">
          <mxGeometry relative="1" as="geometry" />
        </mxCell>
        <mxCell id="yrOSUpVqLaDDBDFLpaAM-24" style="edgeStyle=orthogonalEdgeStyle;rounded=0;orthogonalLoop=1;jettySize=auto;html=1;entryX=0.25;entryY=0;entryDx=0;entryDy=0;" edge="1" parent="1" source="yrOSUpVqLaDDBDFLpaAM-15" target="yrOSUpVqLaDDBDFLpaAM-17">
          <mxGeometry relative="1" as="geometry" />
        </mxCell>
        <mxCell id="yrOSUpVqLaDDBDFLpaAM-15" value="Visualize traces length&amp;nbsp;" style="rounded=0;whiteSpace=wrap;html=1;" vertex="1" parent="1">
          <mxGeometry x="440" y="290" width="120" height="60" as="geometry" />
        </mxCell>
        <mxCell id="yrOSUpVqLaDDBDFLpaAM-32" style="edgeStyle=orthogonalEdgeStyle;rounded=0;orthogonalLoop=1;jettySize=auto;html=1;entryX=0.5;entryY=0;entryDx=0;entryDy=0;" edge="1" parent="1" source="yrOSUpVqLaDDBDFLpaAM-16" target="yrOSUpVqLaDDBDFLpaAM-29">
          <mxGeometry relative="1" as="geometry" />
        </mxCell>
        <mxCell id="yrOSUpVqLaDDBDFLpaAM-33" style="edgeStyle=orthogonalEdgeStyle;rounded=0;orthogonalLoop=1;jettySize=auto;html=1;exitX=0.5;exitY=1;exitDx=0;exitDy=0;entryX=0.5;entryY=0;entryDx=0;entryDy=0;" edge="1" parent="1" source="yrOSUpVqLaDDBDFLpaAM-16" target="yrOSUpVqLaDDBDFLpaAM-30">
          <mxGeometry relative="1" as="geometry" />
        </mxCell>
        <mxCell id="yrOSUpVqLaDDBDFLpaAM-16" value="Try password with correct characters found&amp;nbsp;" style="rounded=0;whiteSpace=wrap;html=1;" vertex="1" parent="1">
          <mxGeometry x="520" y="570" width="120" height="60" as="geometry" />
        </mxCell>
        <mxCell id="yrOSUpVqLaDDBDFLpaAM-25" style="edgeStyle=orthogonalEdgeStyle;rounded=0;orthogonalLoop=1;jettySize=auto;html=1;entryX=0.5;entryY=1;entryDx=0;entryDy=0;" edge="1" parent="1" source="yrOSUpVqLaDDBDFLpaAM-17" target="yrOSUpVqLaDDBDFLpaAM-19">
          <mxGeometry relative="1" as="geometry" />
        </mxCell>
        <mxCell id="yrOSUpVqLaDDBDFLpaAM-28" style="edgeStyle=orthogonalEdgeStyle;rounded=0;orthogonalLoop=1;jettySize=auto;html=1;" edge="1" parent="1" source="yrOSUpVqLaDDBDFLpaAM-17" target="yrOSUpVqLaDDBDFLpaAM-20">
          <mxGeometry relative="1" as="geometry" />
        </mxCell>
        <mxCell id="yrOSUpVqLaDDBDFLpaAM-17" value="One character wins" style="rounded=0;whiteSpace=wrap;html=1;" vertex="1" parent="1">
          <mxGeometry x="600" y="380" width="120" height="60" as="geometry" />
        </mxCell>
        <mxCell id="yrOSUpVqLaDDBDFLpaAM-26" style="edgeStyle=orthogonalEdgeStyle;rounded=0;orthogonalLoop=1;jettySize=auto;html=1;entryX=0;entryY=0.5;entryDx=0;entryDy=0;" edge="1" parent="1" source="yrOSUpVqLaDDBDFLpaAM-18" target="yrOSUpVqLaDDBDFLpaAM-16">
          <mxGeometry relative="1" as="geometry" />
        </mxCell>
        <mxCell id="yrOSUpVqLaDDBDFLpaAM-18" value="No winner found" style="rounded=0;whiteSpace=wrap;html=1;" vertex="1" parent="1">
          <mxGeometry x="440" y="380" width="120" height="60" as="geometry" />
        </mxCell>
        <mxCell id="yrOSUpVqLaDDBDFLpaAM-53" style="edgeStyle=orthogonalEdgeStyle;rounded=0;orthogonalLoop=1;jettySize=auto;html=1;exitX=0;exitY=0.5;exitDx=0;exitDy=0;entryX=1;entryY=0.5;entryDx=0;entryDy=0;" edge="1" parent="1" source="yrOSUpVqLaDDBDFLpaAM-19" target="yrOSUpVqLaDDBDFLpaAM-13">
          <mxGeometry relative="1" as="geometry" />
        </mxCell>
        <mxCell id="yrOSUpVqLaDDBDFLpaAM-19" value="Add one character&amp;nbsp;" style="rounded=0;whiteSpace=wrap;html=1;" vertex="1" parent="1">
          <mxGeometry x="600" y="70" width="120" height="60" as="geometry" />
        </mxCell>
        <mxCell id="yrOSUpVqLaDDBDFLpaAM-27" style="edgeStyle=orthogonalEdgeStyle;rounded=0;orthogonalLoop=1;jettySize=auto;html=1;entryX=0.5;entryY=0;entryDx=0;entryDy=0;" edge="1" parent="1" source="yrOSUpVqLaDDBDFLpaAM-20" target="yrOSUpVqLaDDBDFLpaAM-16">
          <mxGeometry relative="1" as="geometry" />
        </mxCell>
        <mxCell id="yrOSUpVqLaDDBDFLpaAM-20" value="Store guessed characters&amp;nbsp;" style="rounded=0;whiteSpace=wrap;html=1;" vertex="1" parent="1">
          <mxGeometry x="520" y="480" width="120" height="60" as="geometry" />
        </mxCell>
        <mxCell id="yrOSUpVqLaDDBDFLpaAM-37" style="edgeStyle=orthogonalEdgeStyle;rounded=0;orthogonalLoop=1;jettySize=auto;html=1;entryX=1;entryY=0.5;entryDx=0;entryDy=0;" edge="1" parent="1" source="yrOSUpVqLaDDBDFLpaAM-29" target="yrOSUpVqLaDDBDFLpaAM-36">
          <mxGeometry relative="1" as="geometry" />
        </mxCell>
        <mxCell id="yrOSUpVqLaDDBDFLpaAM-29" value="Acces Granted&amp;nbsp;" style="rounded=0;whiteSpace=wrap;html=1;" vertex="1" parent="1">
          <mxGeometry x="430" y="720" width="120" height="60" as="geometry" />
        </mxCell>
        <mxCell id="yrOSUpVqLaDDBDFLpaAM-35" style="edgeStyle=orthogonalEdgeStyle;rounded=0;orthogonalLoop=1;jettySize=auto;html=1;entryX=0.5;entryY=0;entryDx=0;entryDy=0;" edge="1" parent="1" source="yrOSUpVqLaDDBDFLpaAM-30" target="yrOSUpVqLaDDBDFLpaAM-34">
          <mxGeometry relative="1" as="geometry" />
        </mxCell>
        <mxCell id="yrOSUpVqLaDDBDFLpaAM-30" value="Acces Denied" style="rounded=0;whiteSpace=wrap;html=1;" vertex="1" parent="1">
          <mxGeometry x="600" y="720" width="120" height="60" as="geometry" />
        </mxCell>
        <mxCell id="yrOSUpVqLaDDBDFLpaAM-34" value="New Method" style="rounded=0;whiteSpace=wrap;html=1;" vertex="1" parent="1">
          <mxGeometry x="690" y="820" width="120" height="60" as="geometry" />
        </mxCell>
        <mxCell id="yrOSUpVqLaDDBDFLpaAM-36" value="Secret keyphrase found" style="rounded=0;whiteSpace=wrap;html=1;" vertex="1" parent="1">
          <mxGeometry x="200" y="720" width="120" height="60" as="geometry" />
        </mxCell>
        <mxCell id="yrOSUpVqLaDDBDFLpaAM-44" style="edgeStyle=orthogonalEdgeStyle;rounded=0;orthogonalLoop=1;jettySize=auto;html=1;entryX=0;entryY=0.5;entryDx=0;entryDy=0;exitX=0.5;exitY=1;exitDx=0;exitDy=0;" edge="1" parent="1" source="yrOSUpVqLaDDBDFLpaAM-38" target="yrOSUpVqLaDDBDFLpaAM-36">
          <mxGeometry relative="1" as="geometry">
            <mxPoint x="90" y="700" as="targetPoint" />
          </mxGeometry>
        </mxCell>
        <mxCell id="yrOSUpVqLaDDBDFLpaAM-38" value="Correct password" style="rounded=0;whiteSpace=wrap;html=1;" vertex="1" parent="1">
          <mxGeometry x="30" y="480" width="120" height="60" as="geometry" />
        </mxCell>
        <mxCell id="yrOSUpVqLaDDBDFLpaAM-43" style="edgeStyle=orthogonalEdgeStyle;rounded=0;orthogonalLoop=1;jettySize=auto;html=1;entryX=0.5;entryY=0;entryDx=0;entryDy=0;" edge="1" parent="1" source="yrOSUpVqLaDDBDFLpaAM-39" target="yrOSUpVqLaDDBDFLpaAM-6">
          <mxGeometry relative="1" as="geometry" />
        </mxCell>
        <mxCell id="yrOSUpVqLaDDBDFLpaAM-39" value="Incorrect password" style="rounded=0;whiteSpace=wrap;html=1;" vertex="1" parent="1">
          <mxGeometry x="200" y="480" width="120" height="60" as="geometry" />
        </mxCell>
        <mxCell id="yrOSUpVqLaDDBDFLpaAM-46" value="" style="endArrow=none;dashed=1;html=1;dashPattern=1 3;strokeWidth=2;rounded=0;entryX=1;entryY=0;entryDx=0;entryDy=0;exitX=1;exitY=1;exitDx=0;exitDy=0;" edge="1" parent="1" source="yrOSUpVqLaDDBDFLpaAM-47" target="yrOSUpVqLaDDBDFLpaAM-47">
          <mxGeometry width="50" height="50" relative="1" as="geometry">
            <mxPoint x="400" y="780" as="sourcePoint" />
            <mxPoint x="400" y="80" as="targetPoint" />
          </mxGeometry>
        </mxCell>
        <mxCell id="yrOSUpVqLaDDBDFLpaAM-49" value="Identification" style="rounded=0;whiteSpace=wrap;html=1;fillColor=none;strokeColor=none;" vertex="1" parent="1">
          <mxGeometry x="10" y="40" width="120" height="20" as="geometry" />
        </mxCell>
        <mxCell id="yrOSUpVqLaDDBDFLpaAM-50" value="Exploitation" style="rounded=0;whiteSpace=wrap;html=1;fillColor=none;strokeColor=none;" vertex="1" parent="1">
          <mxGeometry x="700" y="40" width="120" height="20" as="geometry" />
        </mxCell>
        <mxCell id="yrOSUpVqLaDDBDFLpaAM-52" value="Goal" style="rounded=0;whiteSpace=wrap;html=1;fillColor=none;strokeColor=none;" vertex="1" parent="1">
          <mxGeometry x="140" y="810" width="120" height="20" as="geometry" />
        </mxCell>
      </root>
    </mxGraphModel>
  </diagram>
</mxfile>
